<svg height="56" viewBox="0 0 15 56" width="15" xmlns="http://www.w3.org/2000/svg"><path d="m0 0h15v56h-15z" fill="none"/><path d="m2.5 8.6227c-1.5 0-2.5 1.3397-2.5 2.6622v33.2068c0 .6888 1.4434 4.651 2.1365 6.2605.0713.1653.2175.2478.3635.2478.1462 0 .2925-.0825.3635-.2478.6931-1.6095 2.1365-5.5717 2.1365-6.2605v-33.2068c0-1.3225-1-2.6622-2.5-2.6622zm0 1.5c.6526 0 1 .6749 1 1.1622v32.9915c0 .283-.2992 1.082-1.0117 1.082-.7168 0-.9883-.7875-.9883-1.082v-32.9915c0-.4873.3474-1.1622 1-1.1622zm10 2.5c-1.5 0-2.5 1.3397-2.5 2.6622v29.2068c0 .6888 1.4434 4.651 2.1365 6.2605.0713.1653.2175.2478.3635.2478.1462 0 .2925-.0825.3635-.2478.6931-1.6095 2.1365-5.5717 2.1365-6.2605v-29.2068c0-1.3225-1-2.6622-2.5-2.6622zm0 1.5c.6526 0 1 .6749 1 1.1622v3.7151h-2v-3.7151c0-.4873.3474-1.1622 1-1.1622zm1 30.1537c0 .2735-.2722 1.082-1.0117 1.082-.7168 0-.9883-.7809-.9883-1.082v-23.2764h2z"/></svg>