<svg height="56" viewBox="0 0 17 56" width="17" xmlns="http://www.w3.org/2000/svg"><path d="m0 0h17v56h-17z" fill="none"/><path d="m13.5 4.6227c-1.5 0-2.5 1.3397-2.5 2.6622v37.2068c0 .6888 1.4434 4.651 2.1365 6.2605.0713.1653.2175.2478.3635.2478.1462 0 .2925-.0825.3635-.2478.6931-1.6095 2.1365-5.5717 2.1365-6.2605v-37.2068c0-1.3225-1-2.6622-2.5-2.6622zm0 1.5c.6526 0 1 .6749 1 1.1622v3.7151h-2v-3.7151c0-.4873.3474-1.1622 1-1.1622zm1 38.1537c-.0012.0166-.0789 1.082-1.0117 1.082-.7168 0-.928-.6278-.9883-.9275v-30.4309h2zm-11-31.6537c-1.5 0-2.5 1.3397-2.5 2.6622v29.2068c0 .6888 1.4434 4.651 2.1365 6.2605.0713.1653.2175.2478.3635.2478.1462 0 .2925-.0825.3635-.2478.6931-1.6095 2.1365-5.5717 2.1365-6.2605v-29.2068c0-1.3225-1-2.6622-2.5-2.6622zm0 1.5c.6526 0 1 .6749 1 1.1622v3.7151h-2v-3.7151c0-.4873.3474-1.1622 1-1.1622zm1 30.1537c-.0012.0166-.0789 1.082-1.0117 1.082-.7168 0-.928-.6278-.9883-.9275v-23.4309h2z"/></svg>