<svg id="Outlined" xmlns="http://www.w3.org/2000/svg" width="47" height="56" viewBox="0 0 47 56"><g id="magickeyboard_elevated_np"><rect id="box_" width="47" height="56" fill="none"/><path id="art_" d="M42,41H5a5.0059,5.0059,0,0,1-5-5V21a5.0059,5.0059,0,0,1,5-5H42a5.0059,5.0059,0,0,1,5,5V36A5.0059,5.0059,0,0,1,42,41ZM5,18a3.0033,3.0033,0,0,0-3,3V36a3.0033,3.0033,0,0,0,3,3H42a3.0033,3.0033,0,0,0,3-3V21a3.0033,3.0033,0,0,0-3-3Zm5.125,3.7064v1.6061a.72.72,0,0,1-.8173.8125H7.6923a.72.72,0,0,1-.8173-.8125V21.7064a.7287.7287,0,0,1,.8173-.8314H9.3077A.7291.7291,0,0,1,10.125,21.7064Zm6,0v1.6061a.72.72,0,0,1-.8173.8125H13.6923a.72.72,0,0,1-.8173-.8125V21.7064a.7287.7287,0,0,1,.8173-.8314h1.6154A.7291.7291,0,0,1,16.125,21.7064Zm24,0v1.6061a.72.72,0,0,1-.8173.8125H37.6923a.72.72,0,0,1-.8173-.8125V21.7064a.7287.7287,0,0,1,.8173-.8314h1.6154A.7291.7291,0,0,1,40.125,21.7064Zm-6,0v1.6061a.72.72,0,0,1-.8173.8125H31.6923a.72.72,0,0,1-.8173-.8125V21.7064a.7287.7287,0,0,1,.8173-.8314h1.6154A.7291.7291,0,0,1,34.125,21.7064Zm-6,0v1.6061a.72.72,0,0,1-.8173.8125H25.6923a.72.72,0,0,1-.8173-.8125V21.7064a.7287.7287,0,0,1,.8173-.8314h1.6154A.7291.7291,0,0,1,28.125,21.7064Zm-6,0v1.6061a.72.72,0,0,1-.8173.8125H19.6923a.72.72,0,0,1-.8173-.8125V21.7064a.7287.7287,0,0,1,.8173-.8314h1.6154A.7291.7291,0,0,1,22.125,21.7064Zm-12,6v1.6061a.72.72,0,0,1-.8173.8125H7.6923a.72.72,0,0,1-.8173-.8125V27.7064a.7287.7287,0,0,1,.8173-.8314H9.3077A.7291.7291,0,0,1,10.125,27.7064Zm6,0v1.6061a.72.72,0,0,1-.8173.8125H13.6923a.72.72,0,0,1-.8173-.8125V27.7064a.7287.7287,0,0,1,.8173-.8314h1.6154A.7291.7291,0,0,1,16.125,27.7064Zm24,0v1.6061a.72.72,0,0,1-.8173.8125H37.6923a.72.72,0,0,1-.8173-.8125V27.7064a.7287.7287,0,0,1,.8173-.8314h1.6154A.7291.7291,0,0,1,40.125,27.7064Zm-6,0v1.6061a.72.72,0,0,1-.8173.8125H31.6923a.72.72,0,0,1-.8173-.8125V27.7064a.7287.7287,0,0,1,.8173-.8314h1.6154A.7291.7291,0,0,1,34.125,27.7064Zm-6,0v1.6061a.72.72,0,0,1-.8173.8125H25.6923a.72.72,0,0,1-.8173-.8125V27.7064a.7287.7287,0,0,1,.8173-.8314h1.6154A.7291.7291,0,0,1,28.125,27.7064Zm-6,0v1.6061a.72.72,0,0,1-.8173.8125H19.6923a.72.72,0,0,1-.8173-.8125V27.7064a.7287.7287,0,0,1,.8173-.8314h1.6154A.7291.7291,0,0,1,22.125,27.7064Zm-12,6v1.6061a.72.72,0,0,1-.8173.8125H7.6923a.72.72,0,0,1-.8173-.8125V33.7064a.7287.7287,0,0,1,.8173-.8314H9.3077A.7291.7291,0,0,1,10.125,33.7064Zm24,0v1.6061a.72.72,0,0,1-.8173.8125H13.6923a.72.72,0,0,1-.8173-.8125V33.7064a.7287.7287,0,0,1,.8173-.8314H33.3077A.7291.7291,0,0,1,34.125,33.7064Zm6,0v1.6061a.72.72,0,0,1-.8173.8125H37.6923a.72.72,0,0,1-.8173-.8125V33.7064a.7287.7287,0,0,1,.8173-.8314h1.6154A.7291.7291,0,0,1,40.125,33.7064Z"/></g></svg>