<svg height="56" viewBox="0 0 36 56" width="36" xmlns="http://www.w3.org/2000/svg"><path d="m0 0h36v56h-36z" fill="none"/><path d="m29 46h-22c-3.8642-.0043-6.9957-3.1358-7-7v-22c.0043-3.8642 3.1358-6.9957 7-7h22c3.8642.0043 6.9957 3.1358 7 7v22c-.0043 3.8642-3.1358 6.9957-7 7zm-22-34c-2.7601.0033-4.9967 2.2399-5 5v22c.0033 2.7601 2.2399 4.9967 5 5h22c2.7601-.0033 4.9967-2.2399 5-5v-22c-.0033-2.7601-2.2399-4.9967-5-5zm4.2573 12.124h1.5627l2.75 7.7505h-1.45l-.65-2.0034h-2.8689l-.6446 2.0034h-1.4492zm-.3066 4.6782h2.1758l-1.043-3.2387h-.0908zm7.0361-3.3139h-.0908l-1.9287 1.3642v-1.3051l2.0244-1.4234h1.3809v7.7505h-1.3858zm3.1846 2.61v-.0107c0-2.61 1.1758-4.1572 3.126-4.1572 1.2839-.0793 2.4382.7779 2.7334 2.03l.0117.0591h-1.3594l-.0215-.0537c-.2082-.5663-.7618-.9303-1.3642-.897-1.23 0-1.751 1.2032-1.81 2.6856 0 .0591-.0059.1181-.0059.1772h.1075c.3842-.7545 1.1803-1.2084 2.0253-1.1548 1.3539-.0437 2.487 1.0184 2.5307 2.3723.002.0616.0017.1233-.001.1849v.0107c.012 1.4949-1.1901 2.7166-2.685 2.7286-.0647.0005-.1293-.0013-.1939-.0054-1.6543 0-3.0937-1.1763-3.0937-3.9693zm3.083 2.8413c.8438.0046 1.5316-.6757 1.5362-1.5196 0-.0091 0-.0182 0-.0272v-.0108c.005-.8468-.6774-1.5373-1.5242-1.5423-.8413-.005-1.5295.6689-1.5422 1.5101v.0107c-.0233.8488.6459 1.5557 1.4947 1.5789.0119.0003.0237.0005.0356.0006v-.0004z"/></svg>