<svg height="56" viewBox="0 0 36 56" width="36" xmlns="http://www.w3.org/2000/svg"><path d="m0 0h36v56h-36z" fill="none"/><path d="m29 46h-22c-3.8594 0-7-3.1406-7-7v-22c0-3.8594 3.1406-7 7-7h22c3.8594 0 7 3.1406 7 7v22c0 3.8594-3.1406 7-7 7zm-22-34c-2.7568 0-5 2.2432-5 5v22c0 2.7568 2.2432 5 5 5h22c2.7568 0 5-2.2432 5-5v-22c0-2.7568-2.2432-5-5-5zm6.2148 13.3965c-.0615.0479-1.1553.6699-1.1553 2.0508 0 1.5928 1.3877 2.1602 1.4355 2.1738-.0137.0342-.2256.7725-.7383 1.5244-.458.6562-.9434 1.3262-1.668 1.3262-.7383 0-.9229-.4307-1.7637-.4307-.8271 0-1.1211.4443-1.7842.4443-.6699 0-1.1348-.6152-1.668-1.3672-.6221-.8887-1.1279-2.2627-1.1279-3.5615 0-2.0918 1.3604-3.1992 2.7002-3.1992.7041 0 1.2988.4648 1.75.4648.417 0 1.0801-.4922 1.8936-.4922.3008 0 1.4014.0273 2.126 1.0664zm-3.9648-1.1826c-.0547 0-.1094-.0068-.1436-.0137-.0068-.0273-.0205-.1094-.0205-.1914 0-.5605.2803-1.1074.5879-1.4561.3896-.458 1.0391-.7998 1.5791-.8203.0137.0615.0205.1367.0205.2119 0 .5537-.2393 1.1074-.5674 1.5039-.3623.4375-.9707.7656-1.4561.7656zm5.7861.3975h1.5898l2.3311 5.9619h.0908l2.3262-5.9619h1.5898v7.751h-1.2461v-5.5107h-.0967l-2.1484 5.5107h-.9453l-2.1484-5.5107h-.0908v5.5107h-1.252zm9.624 5.6562-.0049-.0645h1.3213l.0059.0586c.0742.6553.6816 1.123 1.5898 1.123.8965 0 1.4922-.5 1.4922-1.2197v-.0107c0-.8164-.6016-1.2676-1.5947-1.2676h-.9131v-1.0312h.8867c.8535 0 1.4229-.4834 1.4229-1.1602v-.0107c0-.709-.4775-1.1279-1.3057-1.1279-.8164 0-1.3799.4355-1.4492 1.1279l-.0059.0537h-1.2891l.0059-.0586c.1172-1.3428 1.1758-2.2236 2.7383-2.2236 1.5957 0 2.6328.832 2.6328 2.0459v.0107c0 .9619-.6934 1.6006-1.623 1.7939v.0273c1.1387.1074 1.8965.7842 1.8965 1.8584v.0107c0 1.3643-1.1758 2.3145-2.8945 2.3145-1.6973 0-2.8096-.9238-2.9121-2.25z"/></svg>