<svg height="56" viewBox="0 0 36 56" width="36" xmlns="http://www.w3.org/2000/svg"><path d="m0 0h36v56h-36z" fill="none"/><path d="m29 10h-22c-3.8599 0-7 3.1406-7 7v22c0 3.8594 3.1401 7 7 7h22c3.8599 0 7-3.1406 7-7v-22c0-3.8594-3.1401-7-7-7zm5 29c0 2.7568-2.2432 5-5 5h-22c-2.7568 0-5-2.2432-5-5v-22c0-2.7568 2.2432-5 5-5h22c2.7568 0 5 2.2432 5 5zm-24.623-14.8008c-.0068-.0273-.0205-.1094-.0205-.1914 0-.5605.2803-1.1074.5879-1.4551.3896-.459 1.0391-.8008 1.5791-.8203.0137.0605.0205.1367.0205.2109 0 .5547-.2393 1.1074-.5674 1.5039-.3623.4375-.9707.7656-1.4561.7656-.0547 0-.1094-.0059-.1436-.0137zm4.3887 5.4219c-.0137.0332-.2256.7715-.7383 1.5234-.458.6562-.9434 1.3262-1.668 1.3262-.7383 0-.9229-.4297-1.7637-.4297-.8271 0-1.1211.4434-1.7842.4434-.6699 0-1.1348-.6152-1.668-1.3672-.6221-.8887-1.1279-2.2617-1.1279-3.5605 0-2.0918 1.3604-3.1992 2.7002-3.1992.7041 0 1.2988.4648 1.75.4648.417 0 1.0801-.4922 1.8936-.4922.3008 0 1.4014.0273 2.126 1.0664-.0615.0469-1.1553.6699-1.1553 2.0508 0 1.5918 1.3877 2.1602 1.4355 2.1738zm8.1357-5.0098h1.5898v7.75h-1.2461v-5.5098h-.0967l-2.1484 5.5098h-.9453l-2.1484-5.5098h-.0918v5.5098h-1.251v-7.75h1.5898l2.3311 5.9619h.0918zm8.041 0h-1.96c-1.0527 1.6006-2.1543 3.3838-3.1582 5.1289v1.1338h3.791v1.4873h1.3271v-1.4873h1.042v-1.1436h-1.042v-5.1191zm-1.3057 5.1504h-2.5234v-.0801c.752-1.3164 1.6484-2.75 2.4434-3.9639h.0801v4.0439z"/></svg>