<svg height="56" viewBox="0 0 36 56" width="36" xmlns="http://www.w3.org/2000/svg"><path d="m0 0h36v56h-36z" fill="none"/><path d="m13.5 34.125c-.8974 0-1.625-.7276-1.625-1.625s.7276-1.625 1.625-1.625 1.625.7276 1.625 1.625-.7276 1.625-1.625 1.625zm0-14.625c-2.209 0-4 1.7908-4 4s1.791 4 4 4 4-1.7909 4-4-1.7908-4-4-4zm2.125 20c0 1.1736-.9515 2.125-2.125 2.125s-2.125-.9514-2.125-2.125.9515-2.125 2.125-2.125 2.125.9514 2.125 2.125zm-1.275 0c0-.4687-.3812-.85-.85-.85s-.85.3813-.85.85.3812.85.85.85.85-.3813.85-.85zm.131-29.5c-7.9849 0-14.481 6.4014-14.481 14.2695v21.7305h2v-21.7305c0-6.7656 5.5991-12.2695 12.481-12.2695h21.519v-1.9998z"/></svg>