<svg height="56" viewBox="0 0 36 56" width="36" xmlns="http://www.w3.org/2000/svg"><path d="m.0001 0h36v56h-36z" fill="none"/><path d="m20.7501 25.25c0 3.0376-2.4624 5.5-5.5 5.5s-5.5-2.4624-5.5-5.5 2.4624-5.5 5.5-5.5 5.5 2.4624 5.5 5.5zm-5.5 7.25c-2.4853 0-4.5 2.0147-4.5 4.5s2.0147 4.5 4.5 4.5 4.5-2.0147 4.5-4.5-2.0147-4.5-4.5-4.5zm19.7499 5.0234v-13.0469c0-4.6738-3.8027-8.4766-8.4766-8.4766h-12.0464c-4.6743 0-8.4771 3.8027-8.4771 8.4766v13.0469c0 4.6738 3.8027 8.4766 8.4771 8.4766h12.0464c4.6738 0 8.4766-3.8027 8.4766-8.4766zm-8.4766-19.5234c3.5713 0 6.4766 2.9053 6.4766 6.4766v13.0469c0 3.5713-2.9053 6.4766-6.4766 6.4766h-12.0464c-3.5713 0-6.4771-2.9053-6.4771-6.4766v-13.0469c0-3.5713 2.9058-6.4766 6.4771-6.4766zm.4767 20.25c-.8284 0-1.5.6716-1.5 1.5s.6716 1.5 1.5 1.5 1.5-.6716 1.5-1.5-.6716-1.5-1.5-1.5zm0-16.75c-.5515 0-1 .4486-1 1s.4485 1 1 1 1-.4486 1-1-.4485-1-1-1m0-1.5c1.3806 0 2.5 1.1193 2.5 2.5s-1.1194 2.5-2.5 2.5-2.5-1.1193-2.5-2.5 1.1194-2.5 2.5-2.5zm0 8.25c-1.6543 0-3 1.3458-3 3s1.3457 3 3 3 3-1.3458 3-3-1.3457-3-3-3m0-1.5c2.4854 0 4.5 2.0148 4.5 4.5s-2.0146 4.5-4.5 4.5-4.5-2.0148-4.5-4.5 2.0146-4.5 4.5-4.5zm-25.0001-2.4805c0-6.7656 5.5991-12.2695 12.481-12.2695h21.519v-2h-21.519c-7.9849 0-14.481 6.4014-14.481 14.2695v21.7305h2v-21.7305z"/></svg>