<svg height="56" viewBox="0 0 53 56" width="53" xmlns="http://www.w3.org/2000/svg"><path d="m0 0h53v56h-53z" fill="none"/><path d="m52.6863 8.1509c-.5923-1.3267-1.8754-2.1509-3.3491-2.1509h-45.6742c-1.4736 0-2.7568.8242-3.3491 2.1504-.5781 1.2944-.3467 2.7578.604 3.8184l2.6313 2.9419c.1362.1523.2906.2842.4512.4069v29.6824c0 2.7568 2.2431 5 4.9999 5h34.9993c2.7568 0 4.9999-2.2432 4.9999-5v-29.6827c.1605-.1226.3149-.2544.4512-.4067l2.6308-2.9409c.9512-1.061 1.1831-2.5244.605-3.8188zm-5.6863 36.8491c0 1.6543-1.3463 3-3.0005 3h-34.9993c-1.6542 0-2.9999-1.3457-2.9999-3v-29h40.9997zm3.5917-34.3643-2.6313 2.9414c-.2407.2686-.5928.4229-.9663.4229h-40.9884c-.3735 0-.7256-.1538-.9658-.4224l-2.6323-2.9429c-.4233-.4727-.5234-1.0962-.2676-1.6689.27-.6045.8394-.9658 1.5229-.9658h45.6743c.6836 0 1.2529.3613 1.5229.9663.2559.5723.1553 1.1958-.2686 1.6694zm-37.4667 13.0707v1.6061c0 .542-.2731.8125-.8173.8125h-1.6155c-.5452 0-.8173-.2705-.8173-.8125v-1.6061c0-.5539.2721-.8314.8173-.8314h1.6155c.5442 0 .8173.2775.8173.8314zm-3.25-4.2064c0-.4142.3568-.75.7969-.75h2.6562c.4401 0 .7969.3358.7969.75s-.3567.75-.7969.75h-2.6562c-.4401 0-.7969-.3358-.7969-.75zm7.25 0c0-.4142.3568-.75.7969-.75h2.6562c.4401 0 .7969.3358.7969.75s-.3567.75-.7969.75h-2.6562c-.4401 0-.7969-.3358-.7969-.75zm7.25 0c0-.4142.3567-.75.7969-.75h2.6562c.4401 0 .7969.3358.7969.75s-.3568.75-.7969.75h-2.6562c-.4401 0-.7969-.3358-.7969-.75zm7.25 0c0-.4142.3568-.75.7969-.75h2.6562c.4401 0 .7969.3358.7969.75s-.3567.75-.7969.75h-2.6562c-.4401 0-.7969-.3358-.7969-.75zm7.25 0c0-.4142.3568-.75.7969-.75h2.6563c.4401 0 .7969.3358.7969.75s-.3567.75-.7969.75h-2.6563c-.4401 0-.7969-.3358-.7969-.75zm-6.875 22.4277v3.1446c0 .5124-.4153.9277-.9277.9277h-10.1447c-.5123 0-.9277-.4153-.9277-.9277v-3.1446c0-.5123.4153-.9277.9277-.9277h10.1447c.5123 0 .9277.4153.9277.9277zm-12.875-18.2213v1.6061c0 .542-.2731.8125-.8173.8125h-1.6155c-.5452 0-.8173-.2705-.8173-.8125v-1.6061c0-.5539.2721-.8314.8173-.8314h1.6155c.5442 0 .8173.2775.8173.8314zm24 0v1.6061c0 .542-.2731.8125-.8173.8125h-1.6155c-.5452 0-.8173-.2705-.8173-.8125v-1.6061c0-.5539.2721-.8314.8173-.8314h1.6155c.5442 0 .8173.2775.8173.8314zm-6 0v1.6061c0 .542-.2731.8125-.8173.8125h-1.6155c-.5452 0-.8173-.2705-.8173-.8125v-1.6061c0-.5539.2721-.8314.8173-.8314h1.6155c.5442 0 .8173.2775.8173.8314zm-6 0v1.6061c0 .542-.2731.8125-.8173.8125h-1.6155c-.5452 0-.8173-.2705-.8173-.8125v-1.6061c0-.5539.2721-.8314.8173-.8314h1.6155c.5442 0 .8173.2775.8173.8314zm-6 0v1.6061c0 .542-.2731.8125-.8173.8125h-1.6155c-.5452 0-.8173-.2705-.8173-.8125v-1.6061c0-.5539.2721-.8314.8173-.8314h1.6155c.5442 0 .8173.2775.8173.8314zm-12 6v1.6061c0 .542-.2731.8125-.8173.8125h-1.6155c-.5452 0-.8173-.2705-.8173-.8125v-1.6061c0-.5539.2721-.8314.8173-.8314h1.6155c.5442 0 .8173.2775.8173.8314zm6 0v1.6061c0 .542-.2731.8125-.8173.8125h-1.6155c-.5452 0-.8173-.2705-.8173-.8125v-1.6061c0-.5539.2721-.8314.8173-.8314h1.6155c.5442 0 .8173.2775.8173.8314zm24 0v1.6061c0 .542-.2731.8125-.8173.8125h-1.6155c-.5452 0-.8173-.2705-.8173-.8125v-1.6061c0-.5539.2721-.8314.8173-.8314h1.6155c.5442 0 .8173.2775.8173.8314zm-6 0v1.6061c0 .542-.2731.8125-.8173.8125h-1.6155c-.5452 0-.8173-.2705-.8173-.8125v-1.6061c0-.5539.2721-.8314.8173-.8314h1.6155c.5442 0 .8173.2775.8173.8314zm-6 0v1.6061c0 .542-.2731.8125-.8173.8125h-1.6155c-.5452 0-.8173-.2705-.8173-.8125v-1.6061c0-.5539.2721-.8314.8173-.8314h1.6155c.5442 0 .8173.2775.8173.8314zm-6 0v1.6061c0 .542-.2731.8125-.8173.8125h-1.6155c-.5452 0-.8173-.2705-.8173-.8125v-1.6061c0-.5539.2721-.8314.8173-.8314h1.6155c.5442 0 .8173.2775.8173.8314zm-12 6v1.6061c0 .542-.2731.8125-.8173.8125h-1.6155c-.5452 0-.8173-.2705-.8173-.8125v-1.6061c0-.5539.2721-.8314.8173-.8314h1.6155c.5442 0 .8173.2775.8173.8314zm24 0v1.6061c0 .542-.2731.8125-.8173.8125h-19.6155c-.5452 0-.8173-.2705-.8173-.8125v-1.6061c0-.5539.2721-.8314.8173-.8314h19.6155c.5442 0 .8173.2775.8173.8314zm6 0v1.6061c0 .542-.2731.8125-.8173.8125h-1.6155c-.5452 0-.8173-.2705-.8173-.8125v-1.6061c0-.5539.2721-.8314.8173-.8314h1.6155c.5442 0 .8173.2775.8173.8314z"/></svg>